<?xml version="1.0" encoding="utf-8"?>
<svg xmlns="http://www.w3.org/2000/svg" viewBox="0 0 26 26" width="208" height="208">
  <path d="M12.25 8.375C12.238281 8.375 12.125 8.390625 12.125 8.46875C12.125 8.535156 12.199219 8.5625 12.25 8.5625C16.152344 8.5625 22.488281 10.109375 22.28125 13.46875C22.113281 16.203125 17.15625 19.40625 5.75 19.40625C5.683594 19.40625 5.65625 19.457031 5.65625 19.5C5.65625 19.542969 5.667969 19.585938 5.75 19.59375C5.75 19.59375 25.578125 20.394531 26 13.46875C26.34375 7.851563 12.261719 8.375 12.25 8.375 Z M 2.75 9.3125C2.734375 9.3125 2.699219 9.332031 2.6875 9.34375C1.535156 10.964844 0.84375 12.074219 0.125 13.40625L0.03125 13.59375C-0.03125 13.722656 -0.0234375 13.863281 0.0625 14C0.488281 14.664063 2.886719 15.4375 8.21875 15.4375C12.195313 15.4375 16.40625 14.8125 16.40625 13.625C16.40625 12.476563 12.246094 11.78125 8.21875 11.78125C6.878906 11.78125 5.570313 11.972656 5.1875 12.03125C5.550781 11.46875 7.046875 9.425781 7.0625 9.40625C7.070313 9.398438 7.09375 9.386719 7.09375 9.375C7.09375 9.367188 7.066406 9.351563 7.0625 9.34375C7.050781 9.328125 7.050781 9.3125 7.03125 9.3125 Z M 8.21875 13.03125C10.652344 13.03125 12.15625 13.378906 12.15625 13.625C12.15625 13.871094 10.652344 14.21875 8.21875 14.21875C5.78125 14.21875 4.28125 13.871094 4.28125 13.625C4.28125 13.378906 5.78125 13.03125 8.21875 13.03125Z" fill="#FFFAFF" />
</svg>