<?xml version="1.0" encoding="utf-8"?>
<svg xmlns="http://www.w3.org/2000/svg" viewBox="0 0 26 26" width="208" height="208">
  <path d="M1 6C0.449219 6 0 6.449219 0 7L0 21C0 21.550781 0.449219 22 1 22L25 22C25.550781 22 26 21.550781 26 21L26 7C26 6.449219 25.550781 6 25 6 Z M 2 8L24 8L24 20L2 20 Z M 7.125 11L6.09375 17L7.875 17L8.28125 14.5625L10.59375 14.5625L10.15625 17L11.90625 17L12.9375 11L11.15625 11L10.84375 13.0625L8.53125 13.0625L8.875 11 Z M 14.28125 11L14.0625 12.40625L17.34375 12.40625C17.949219 12.40625 18.226563 12.574219 18.09375 13.34375L17.875 14.59375C17.757813 15.230469 17.464844 15.59375 16.8125 15.59375L15.28125 15.59375L15.6875 13.0625L13.9375 13.0625L13.28125 17L16.84375 17C18.667969 17 19.386719 16.234375 19.65625 14.59375L19.875 13.34375C20.160156 11.652344 19.484375 11 17.65625 11 Z M 10 23L10 24L5 24C4.449219 24 4 24.5 4 25L4 26L22 26L22 25C22 24.449219 21.550781 24 21 24L16 24L16 23Z" fill="#FFFAFF" />
</svg>