<svg xmlns="http://www.w3.org/2000/svg" viewBox="0 0 48 48">
  <path d="M24 4C12.972066 4 4 12.972074 4 24C4 35.027926 12.972066 44 24 44C35.027934 44 44 35.027926 44 24C44 12.972074 35.027934 4 24 4 z M 24 7C33.406615 7 41 14.593391 41 24C41 33.406609 33.406615 41 24 41C14.593385 41 7 33.406609 7 24C7 14.593391 14.593385 7 24 7 z M 24 13C20.704135 13 18 15.704135 18 19L18 19.5 A 1.50015 1.50015 0 1 0 21 19.5L21 19C21 17.325865 22.325865 16 24 16C25.674135 16 27 17.325865 27 19C27 21.340909 26.39136 21.634239 25.324219 22.472656C24.790648 22.891865 24.091764 23.375202 23.494141 24.189453C22.896517 25.003704 22.5 26.138742 22.5 27.5 A 1.50015 1.50015 0 1 0 25.5 27.5C25.5 26.646758 25.665983 26.300186 25.912109 25.964844C26.158236 25.629501 26.584352 25.296698 27.175781 24.832031C28.35864 23.902698 30 22.159091 30 19C30 15.704135 27.295865 13 24 13 z M 24 32 A 2 2 0 0 0 24 36 A 2 2 0 0 0 24 32 z" fill="#FFFAFF" />
</svg>