<?xml version="1.0" encoding="utf-8"?>
<svg xmlns="http://www.w3.org/2000/svg" viewBox="0 0 26 26" width="208" height="208">
  <path d="M20.28125 4.0625C19.6875 4.109375 19.175781 4.5 18.980469 5.0625C18.785156 5.625 18.9375 6.25 19.375 6.65625C20.992188 8.28125 22 10.507813 22 13C22 15.484375 20.996094 17.714844 19.375 19.34375C18.789063 19.929688 18.789063 20.882813 19.375 21.46875C19.960938 22.054688 20.914063 22.054688 21.5 21.46875C23.65625 19.300781 25 16.289063 25 13C25 9.703125 23.65625 6.699219 21.5 4.53125C21.222656 4.238281 20.839844 4.070313 20.4375 4.0625C20.386719 4.058594 20.332031 4.058594 20.28125 4.0625 Z M 5.375 4.09375C5.042969 4.136719 4.734375 4.292969 4.5 4.53125C2.34375 6.699219 1 9.710938 1 13C1 16.296875 2.34375 19.300781 4.5 21.46875C5.085938 22.054688 6.039063 22.054688 6.625 21.46875C7.210938 20.882813 7.210938 19.929688 6.625 19.34375C5.007813 17.71875 4 15.492188 4 13C4 10.515625 5.003906 8.285156 6.625 6.65625C7.089844 6.203125 7.210938 5.503906 6.929688 4.921875C6.644531 4.339844 6.015625 4.003906 5.375 4.09375 Z M 9.1875 7.40625C8.859375 7.441406 8.550781 7.585938 8.3125 7.8125C6.902344 9.09375 6 10.953125 6 13C6 15.046875 6.871094 16.910156 8.28125 18.1875C8.894531 18.75 9.84375 18.707031 10.40625 18.09375C10.96875 17.480469 10.925781 16.53125 10.3125 15.96875C9.507813 15.238281 9 14.191406 9 13C9 11.816406 9.503906 10.765625 10.3125 10.03125C10.804688 9.601563 10.960938 8.90625 10.707031 8.308594C10.449219 7.710938 9.835938 7.34375 9.1875 7.40625 Z M 16.59375 7.40625C15.984375 7.441406 15.457031 7.839844 15.257813 8.414063C15.0625 8.992188 15.230469 9.628906 15.6875 10.03125C16.492188 10.761719 17 11.808594 17 13C17 14.183594 16.496094 15.234375 15.6875 15.96875C15.230469 16.308594 15.003906 16.878906 15.105469 17.4375C15.207031 18 15.617188 18.453125 16.164063 18.613281C16.710938 18.773438 17.300781 18.605469 17.6875 18.1875C19.097656 16.90625 20 15.046875 20 13C20 10.953125 19.128906 9.089844 17.71875 7.8125C17.417969 7.527344 17.007813 7.378906 16.59375 7.40625 Z M 13 11.1875C11.996094 11.1875 11.1875 11.996094 11.1875 13C11.1875 14 11.996094 14.8125 13 14.8125C14.003906 14.8125 14.8125 14 14.8125 13C14.8125 11.996094 14.003906 11.1875 13 11.1875Z" fill="#FFFAFF" />
</svg>