<?xml version="1.0" encoding="utf-8"?>
<svg xmlns="http://www.w3.org/2000/svg" viewBox="0 0 24 24" width="96" height="96">
  <path d="M12.037109 1.9960938C6.5141094 1.9960938 2.0371094 6.4730938 2.0371094 11.996094C2.0371094 17.519094 6.5141094 21.996094 12.037109 21.996094C12.206109 21.996094 12.370109 21.980656 12.537109 21.972656C7.8001094 21.710656 4.0371094 17.797094 4.0371094 12.996094C4.0371094 8.0250937 8.0661094 3.9960938 13.037109 3.9960938C17.839109 3.9960938 21.752672 7.7590937 22.013672 12.496094C22.021672 12.329094 22.037109 12.165094 22.037109 11.996094C22.037109 6.4730938 17.560109 1.9960938 12.037109 1.9960938 z M 12.578125 6.0117188C12.200969 6.0362813 11.817438 6.0916875 11.429688 6.1796875C8.6736875 6.8046875 6.5311875 9.1327344 6.1171875 11.927734C5.4261875 16.594734 9.3479063 20.554641 14.003906 19.931641C16.326906 19.620641 18.334703 18.061266 19.345703 15.947266C19.919703 14.746266 20.098531 13.594625 20.019531 12.515625C19.987531 12.073625 19.447859 11.834531 19.130859 12.144531C18.386859 12.871531 17.264938 13.213609 16.085938 12.849609C15.187938 12.572609 14.447437 11.860703 14.148438 10.970703C13.606438 9.3597031 14.442047 7.8939219 15.748047 7.2949219C16.068047 7.1479219 16.072047 6.6858281 15.748047 6.5488281C14.782797 6.1393281 13.709594 5.9380313 12.578125 6.0117188 z" fill="#FFFAFF" />
</svg>